<svg width="52" height="39" viewBox="0 0 52 39" fill="none" xmlns="http://www.w3.org/2000/svg">
<g id="Vector">
<path d="M3.8147e-05 5.5C3.8147e-05 2.46243 2.46247 0 5.50004 0H46.5001C49.5377 0 52.0001 2.46243 52.0001 5.5C52.0001 8.53757 49.5377 11 46.5001 11H5.50003C2.46247 11 3.8147e-05 8.53757 3.8147e-05 5.5Z" fill="#FF9900"/>
<path d="M3.8147e-05 19.5C3.8147e-05 16.4624 2.46248 14 5.50005 14H46.5001C49.5377 14 52.0001 16.4624 52.0001 19.5C52.0001 22.5376 49.5377 25 46.5001 25H5.50005C2.46248 25 3.8147e-05 22.5376 3.8147e-05 19.5Z" fill="#FF9900"/>
<path d="M3.8147e-05 19.5C3.8147e-05 16.4624 2.46248 14 5.50005 14H46.5001C49.5377 14 52.0001 16.4624 52.0001 19.5C52.0001 22.5376 49.5377 25 46.5001 25H5.50005C2.46248 25 3.8147e-05 22.5376 3.8147e-05 19.5Z" fill="#FF9900"/>
<path d="M3.8147e-05 19.5C3.8147e-05 16.4624 2.46248 14 5.50005 14H46.5001C49.5377 14 52.0001 16.4624 52.0001 19.5C52.0001 22.5376 49.5377 25 46.5001 25H5.50005C2.46248 25 3.8147e-05 22.5376 3.8147e-05 19.5Z" fill="#FF9900"/>
<path d="M3.8147e-05 19.5C3.8147e-05 16.4624 2.46248 14 5.50005 14H46.5001C49.5377 14 52.0001 16.4624 52.0001 19.5C52.0001 22.5376 49.5377 25 46.5001 25H5.50005C2.46248 25 3.8147e-05 22.5376 3.8147e-05 19.5Z" fill="#FF9900"/>
<path d="M0 33.5C0 30.4624 2.46244 28 5.50001 28H46.5001C49.5376 28 52.0001 30.4624 52.0001 33.5C52.0001 36.5376 49.5376 39 46.5001 39H5.50001C2.46244 39 0 36.5376 0 33.5Z" fill="#FF9900"/>
<path d="M0 33.5C0 30.4624 2.46244 28 5.50001 28H46.5001C49.5376 28 52.0001 30.4624 52.0001 33.5C52.0001 36.5376 49.5376 39 46.5001 39H5.50001C2.46244 39 0 36.5376 0 33.5Z" fill="#FF9900"/>
<path d="M0 33.5C0 30.4624 2.46244 28 5.50001 28H46.5001C49.5376 28 52.0001 30.4624 52.0001 33.5C52.0001 36.5376 49.5376 39 46.5001 39H5.50001C2.46244 39 0 36.5376 0 33.5Z" fill="#FF9900"/>
</g>
</svg>
